<?xml version="1.0" encoding="utf-8"?>
<svg width="800px" height="800px" viewBox="0 0 24 24" fill="none" xmlns="http://www.w3.org/2000/svg">
<circle cx="12" cy="12" r="10" stroke="#003366" stroke-width="2"/>
<path d="M13.0715 7.42857C13.0715 7.98086 12.6238 8.42857 12.0715 8.42857C11.5192 8.42857 11.0715 7.98086 11.0715 7.42857C11.0715 6.87629 11.5192 6.42857 12.0715 6.42857C12.6238 6.42857 13.0715 6.87629 13.0715 7.42857Z" fill="#003366" stroke="#003366" stroke-width="0.857143"/>
<path d="M10.6842 10.5882H12.1423H13.1652C13.1652 11.5884 12.5639 12.9005 12.5639 14.0138H11.3609C11.3609 12.8042 10.6842 11.6471 10.6842 10.5882Z" fill="#003366"/>
<path d="M10.6842 10.5882C11.2105 10.5882 12.1423 10.5882 12.1423 10.5882C12.1423 10.5882 12.7657 10.5882 13.1652 10.5882M10.6842 10.5882C10.6842 11.6471 11.3609 12.8042 11.3609 14.0138M10.6842 10.5882C9.24544 9.96799 7 9 7 9M11.3609 14.0138C10.48 15.5705 9.10526 18 9.10526 18M11.3609 14.0138C11.8307 14.0138 12.0941 14.0138 12.5639 14.0138M12.5639 14.0138C13.4742 15.5705 14.8947 18 14.8947 18M12.5639 14.0138C12.5639 12.9005 13.1652 11.5884 13.1652 10.5882M13.1652 10.5882C14.6628 9.96799 17 9 17 9" stroke="#003366" stroke-width="1.8" stroke-linecap="round" stroke-linejoin="round"/>
</svg>